<svg xmlns="http://www.w3.org/2000/svg" viewBox="0 0 386.57 70.12"><defs><style>.cls-1{fill:none;}.cls-2{fill:#b06a70;}.cls-3{fill:#a76f77;}.cls-4{fill:#a76e74;}.cls-5{fill:#a87176;}.cls-6{fill:#a76f74;}.cls-7{fill:#a67175;}.cls-8{fill:#a87277;}.cls-9{fill:#a87077;}.cls-10{fill:#a57276;}.cls-11{fill:#a77377;}.cls-12{fill:#a87278;}.cls-13{fill:#ae878e;}.cls-14{fill:#a8777c;}.cls-15{fill:#af9398;}.cls-16{fill:#ac6c72;}.cls-17{fill:#a96c73;}.cls-18{fill:#a86f75;}.cls-19{fill:#a76e72;}.cls-20{fill:#a86f73;}.cls-21{fill:#a76e73;}.cls-22{fill:#aa6e73;}.cls-23{fill:#a66e73;}.cls-24{fill:#a67076;}.cls-25{fill:#a77076;}.cls-26{fill:#a67276;}.cls-27{fill:#a76f75;}.cls-28{fill:#a97378;}.cls-29{fill:#a87378;}.cls-30{fill:#a57175;}.cls-31{fill:#a6787b;}.cls-32{fill:#a77174;}.cls-33{fill:#a9747a;}.cls-34{fill:#a77378;}.cls-35{fill:#a77a7e;}</style></defs><g id="Layer_2" data-name="Layer 2"><g id="Layer_1-2" data-name="Layer 1"><path class="cls-1" d="M47.69,30.58a.17.17,0,0,0,.06.11C47.69,30.63,47.69,30.63,47.69,30.58Z"/><path class="cls-1" d="M27.83,45.35h0C27.89,45.29,27.77,45.29,27.83,45.35Z"/><path class="cls-2" d="M5,17Z"/><path class="cls-2" d="M92.87,28.86a8,8,0,0,0,4.8-8,33,33,0,0,0-1.37-8.82,44.65,44.65,0,0,0-3.43-8.75,4.93,4.93,0,0,0-5-3,17.85,17.85,0,0,0-7.56,2.4A69.11,69.11,0,0,0,69.45,10.6a57.55,57.55,0,0,0-5.38,5.21c0,.28-.06.45-.4.4h0a.56.56,0,0,0-.29.34c0,.46-.46.69-.63,1.09a8.4,8.4,0,0,1-1.77,2,1.12,1.12,0,0,0-.35.63c-.05.4-.45.46-.8.52h0a55.71,55.71,0,0,0-4.69,6.75c-.92,1.49-1.72,3-2.69,4.41a6.58,6.58,0,0,1-.63,1c-.18.34-.29.75-.81.8h0a5.14,5.14,0,0,1-1.25.29c-.29.06-.29-.06-.35-.29a5,5,0,0,1,.57-3h0c.06-.35.18-.75.23-1.09h0c0-.52-.11-1,.46-1.38v-.17c-.11-.28.23-.74-.23-1A2.18,2.18,0,0,1,49.76,29c-.18.52-.41,1.09-.63,1.6-.06.12-.06.29-.29.29s-.23-.17-.29-.29c-.17-.51-.4-1.08-.63-1.6-.28,0-.17-.29-.4-.4a1.29,1.29,0,0,0,.06,1,3.52,3.52,0,0,1,.52,2.12h0a5.58,5.58,0,0,1,.11,1.95c0,.28-.11.4-.4.34s-.86-.06-1.2-.29h0a.79.79,0,0,1-.58-.46l-1.89-3.09a81.86,81.86,0,0,0-4.58-7.15c-.51,0-.63-.29-.51-.69h0a1.9,1.9,0,0,1-1.15-1.55h0c-.45,0-.63-.28-.91-.63a4.33,4.33,0,0,0-1.2-1.43c-.29-.17,0-.46-.18-.63h0a8.45,8.45,0,0,0-.74-.91,80.69,80.69,0,0,0-6.7-6.64,37.88,37.88,0,0,0-4.29-3.38c-.23,0-.52.06-.46-.35h0c-.11.06-.29.18-.4.06-.52-.57-1.38-.74-1.66-1.54h0a23.94,23.94,0,0,0-2.75-1.84,2.29,2.29,0,0,1-2-1.14h0a1.15,1.15,0,0,1-1.38-.63,16.83,16.83,0,0,0-3.43-1A7.63,7.63,0,0,0,8.36.52,5.67,5.67,0,0,0,4.53,3.9a49.83,49.83,0,0,0-3.09,8A31.83,31.83,0,0,0,0,21.47,7.69,7.69,0,0,0,2.81,27.6a15.14,15.14,0,0,0,2.4,1.49h0a5.78,5.78,0,0,1,1,.69,1.36,1.36,0,0,1,.29,2.06,1.14,1.14,0,0,0-.17.28,1.54,1.54,0,0,1-.69,1.15A22.76,22.76,0,0,0,4,34.87a.89.89,0,0,0-.17.63c.06,1,.11,2,1.2,2.52a1.82,1.82,0,0,1,1,1.2c.46-.23.46,0,.46.35h0A19.58,19.58,0,0,0,8.76,41a39.45,39.45,0,0,0,3.72,1.71A45.19,45.19,0,0,0,17.35,44c2.75.52,5.55.86,8.36,1.15a1.06,1.06,0,0,1,.57.11h0a3.17,3.17,0,0,1,.75.06c.28,0,.51.06.8.06h.06v.11l-2.81.86h0c-.23.06-.46.17-.69.23-3,1-6.18,2-8.7,4.06-.34.46-.74.92-1,1.38A6.36,6.36,0,0,0,14,56.45a22,22,0,0,0,3.44,8.48s.06.11.11.17h0a14.32,14.32,0,0,0,3.95,3.43,11.82,11.82,0,0,0,4.81,1.26,14.17,14.17,0,0,0,7.62-2.11c.4-.18.74-.41,1.14-.63h0L35.1,67A21.84,21.84,0,0,0,44,56.17c.86-2.18,1.83-4.3,2.86-6.36h0a2.94,2.94,0,0,1,.58-1.14h0c.51.23.4.86.51,1.26.23.68.17,1.43.46,2.12.11.23,0,.57,0,.85a.71.71,0,0,0,.34.63,1.31,1.31,0,0,0,.06-.68c0-.17,0-.4.23-.4.28-.92.28-1.89.63-2.81h0a3.31,3.31,0,0,1,.17-1c.8,1.77,1.55,3.43,2.29,5,.69,1.43,1.14,3,2,4.4.11.06.28,0,.34.18a12.58,12.58,0,0,0,1.43,2.4c.23.4.8.69.63,1.26h0c0,.12.12.17.17.23.46.23.86.51.92,1h0a12.71,12.71,0,0,0,2,1.89c.4-.06.52.17.57.46.63,0,.75,0,.58.46h0a1.09,1.09,0,0,1,.34.22c.63-.11.92.06,1,.69h0a18,18,0,0,0,4.47,2.18,11.34,11.34,0,0,0,12.88-3.78,21.13,21.13,0,0,0,3.72-8.53,6.48,6.48,0,0,0-.8-5.15,8.58,8.58,0,0,0-3.32-2.75A50.27,50.27,0,0,0,71.51,46l-2.06-.68c1.83-.29,3.61-.52,5.38-.75a54.82,54.82,0,0,0,8.65-1.66,22.36,22.36,0,0,0,9.27-5.09A3.29,3.29,0,0,0,94,35.44,5.29,5.29,0,0,0,92.18,33a1.45,1.45,0,0,1-.57-.63h0c-.12,0-.18-.12-.18-.23a3.13,3.13,0,0,1-.57-.63A1.36,1.36,0,0,1,91,29.66a4,4,0,0,1,1.09-.8h0A.82.82,0,0,0,92.87,28.86ZM30.18,16.15h0a.59.59,0,0,1,.74.46h0c.57-.12.86.05.92.68.45-.11.74,0,.68.52a36.16,36.16,0,0,1,6.36,7.44h0c.17.06.63.06.28.46a1.22,1.22,0,0,0,.35.57h0c.05,0,.11-.05.23-.11v.46c1,1.77,1.94,3.55,2.8,5.38,1,2.12,1.83,4.29,2.58,6.47a1.14,1.14,0,0,1-.17,1.2,1,1,0,0,1-1.55.06c-2.4-2-4.81-3.84-7.33-5.73-3.72-2.8-7.44-5.49-11.39-8-.92-.57-1.89-1-2.86-1.6a2.29,2.29,0,0,1-1-1h0a3,3,0,0,1-.51-2.41,5,5,0,0,1,1.2-2.75,6.13,6.13,0,0,1,3.38-2.46A7.33,7.33,0,0,1,30.18,16.15Zm-17.7-10a.91.91,0,0,1,1.09-.29A26.51,26.51,0,0,1,21.76,9a15.13,15.13,0,0,1,1.89,1.43c2.29,2.07.8,4.81-1.26,5.5a4.78,4.78,0,0,1-1,.17,3.68,3.68,0,0,1-2.12-1,25.49,25.49,0,0,1-4.47-4.75c-.8-1-1.49-2-2.23-3A1,1,0,0,1,12.48,6.13Zm-5.78,4a1.92,1.92,0,0,1,2.12-1,5.75,5.75,0,0,1,3.55,1.72,17.4,17.4,0,0,1,1.89,1.77h.11a.84.84,0,0,1,.69.29c.86.91,1.72,1.77,2.63,2.63a.55.55,0,0,1,.18.57h0a1,1,0,0,0,.23.35h0v0h0a.4.4,0,0,1,.22.29h0a.69.69,0,0,1-.11.92l-.11.11h0a.49.49,0,0,1-.69.17,21.29,21.29,0,0,1-2.69-.74h0a.67.67,0,0,1-.46-.12,21.55,21.55,0,0,1-6.87-3A3.28,3.28,0,0,1,6.7,10.14ZM5.21,21.53h0A2.67,2.67,0,0,1,3.5,19a1,1,0,0,1,.23-.8h0a.86.86,0,0,1,.34-.57h0a1.61,1.61,0,0,1,.69-.57h0c0-.29.28-.18.45-.18h0l-.34-.17a4.6,4.6,0,0,1,2.46.17,21.27,21.27,0,0,1,3.78.92,33.75,33.75,0,0,1,5.27,1.89.67.67,0,0,1,.51.8c-.05.4-.34.52-.74.52-1.09.05-2.18.17-3.26.22a35.85,35.85,0,0,0-5.5.75A4.19,4.19,0,0,1,5.21,21.53ZM8.82,26.4c-.57-.4-.63-.86-.11-1.32a6,6,0,0,1,3.83-1.77A13.93,13.93,0,0,1,19,24.39,41,41,0,0,1,28.52,30a6.58,6.58,0,0,1,.62.58h0c.29,0,.46.34.69.45h0a1.55,1.55,0,0,1,.69.58,1.92,1.92,0,0,1-.8-.46L29,30.81a.06.06,0,0,1-.06-.06c-4.69-1.6-9.62-2-14.48-2.86a29.43,29.43,0,0,1-4.47-1A2.45,2.45,0,0,1,8.82,26.4ZM25.71,37.28c-1.89,0-3.78,0-5.67,0a14.52,14.52,0,0,1-6.75-1.55,4.58,4.58,0,0,1-2.52-3,3,3,0,0,1,0-1.26h0c0-.35.23-.41.51-.46a10.67,10.67,0,0,1,2.29-.17,62,62,0,0,1,13.8,1.31,5,5,0,0,1,1.49.46,14.91,14.91,0,0,1,1.49.46h0c.63-.23,1,.23,1.54.51a.3.3,0,0,1-.11.18.32.32,0,0,0,.23.11h0c.17.06.57-.4.46.23a66.36,66.36,0,0,1,7.09,4.81c.75.57,1.44,1.14,2.18,1.72.23.17.46.4.23.74s-.46.23-.8.11c-1-.4-1.89-.91-2.86-1.37-.23-.11-.46-.17-.69-.29h0A1.65,1.65,0,0,1,36,39.11a10.46,10.46,0,0,1-1.88-.4,7.24,7.24,0,0,1-1.55-.52c-.11-.06-.11-.11-.17-.17A26.28,26.28,0,0,0,25.71,37.28ZM36,40.71c.57-.17.91.29,1.31.57.17.12.12.46,0,.69a1.32,1.32,0,0,1-1,.57,35,35,0,0,1-3.55,0c-.8-.11-1.6-.11-2.41-.17-.34,0-.57-.34-.74-.63a5.75,5.75,0,0,1-.74-.51,1.43,1.43,0,0,1-.29-1.78,1.5,1.5,0,0,1,1.66-.74,20.79,20.79,0,0,1,4,1.37,16.24,16.24,0,0,1,1.78.63ZM16.15,56.11c-.63-1.83.11-3.32,1.32-4.64A8.71,8.71,0,0,1,22,49a4.73,4.73,0,0,0,.86-.22h0c-.12-.12-.4-.06-.23-.35a.43.43,0,0,1,.57-.23c.69.46,1.32,0,1.89-.11a10.58,10.58,0,0,1,3-.35.73.73,0,0,1,.68.58c0,.23,0,.63-.57.57-1.66,1.49-3.2,2.92-4.92,4.29-.86.69-1.72,1.32-2.58,2h0a1.38,1.38,0,0,1-1.49.91c-.05,0-.11.06-.17.06h0a1.94,1.94,0,0,1-2.12.75C16.44,56.8,15.92,56.74,16.15,56.11ZM20.21,61h0c-.05,0-.11.06-.23.12h0A1.31,1.31,0,0,1,18.15,61h0a2,2,0,0,1-.68-.68h0a1.32,1.32,0,0,1,.22-2.18s.06-.11.12-.11a34.39,34.39,0,0,0,5.67-3.72c1-.75,1.89-1.49,2.86-2.29h0c.51-.52.86-.58,1.37-.23a.87.87,0,0,1,.4,1.2,1.87,1.87,0,0,1-.45,1,8.09,8.09,0,0,1-1.84,2.35h0a7.75,7.75,0,0,1-1.48,1.54h0a12.6,12.6,0,0,1-2.12,1.83c-.12.23-.46.23-.63.46h0a3.32,3.32,0,0,1-1.38.8ZM28.4,66c-.17,0-.34.06-.57.06-1.43,0-2.12-1-1.38-2.29a15.39,15.39,0,0,1,1.72-2.29h0c0-.18.06-.35-.06-.52-.4.11-.51.63-1,.63a14.59,14.59,0,0,1-2.29,2,2.49,2.49,0,0,1-2.58,0,1,1,0,0,1-.17-1.84c1.21-1,2.35-2.17,3.44-3.26.57-.63,1.14-1.2,1.77-1.83h0a.62.62,0,0,1,.12-.63c.17-.12.11.23.28.11l.23-.23s-.23-.11-.11-.22l1-1a1,1,0,0,1,.91-.29,3,3,0,0,1,1.61,0h0a.84.84,0,0,1,.4,1.32,1.36,1.36,0,0,0-.4,1c.17.11.28-.12.46-.06.05-.4,0-.92.68-.92h0a.68.68,0,0,1,.12-.46,7.37,7.37,0,0,0,.91-1.43.58.58,0,0,1,.69-.4c.29-.28.46-.68.8-.86s.46-.28.75-.11.11.46.05.69A31.14,31.14,0,0,1,34.35,57a40.36,40.36,0,0,1-3.66,7C30.12,64.87,29.55,65.79,28.4,66ZM45.86,48.32c-.68,1.84-1.49,3.61-2.29,5.39-.91,1.94-1.89,3.89-3,5.78h0a1.43,1.43,0,0,1-.52,1.14,1,1,0,0,0-.4.52.59.59,0,0,1-.69.4c-.06.06-.11.17-.17.23h0a1.51,1.51,0,0,1-1.37,1.09c-.29.11-.52.4-.86.45h0a10.53,10.53,0,0,1-4.12,1.38h0a.48.48,0,0,0-.29.11h0c-.12.12-.34.17-.4,0a.61.61,0,0,1,.06-.63h0a.72.72,0,0,1,.22-.57h0a.43.43,0,0,1,.12-.23v-.06a.66.66,0,0,1,.23-.45A30.17,30.17,0,0,1,34.47,59c1.37-2.4,2.75-4.81,4.18-7.1a10.33,10.33,0,0,1,4.52-4.18,5,5,0,0,1,2-.45C45.86,47.29,46.15,47.69,45.86,48.32ZM88.51,9.05a2.18,2.18,0,0,1,2.64,2,3.07,3.07,0,0,1-1.72,3.32,25.26,25.26,0,0,1-5.61,2.41c-1.15.34-2.29.63-3.44,1-.91.23-1.25,0-1.37-1h0c-.11-.52.06-.86.69-.86h0c0-.34.11-.51.46-.46h0a.6.6,0,0,1,.68-.68h0c0-.23,0-.69.46-.46,1.26-1.2,2.52-2.41,3.84-3.55A7.33,7.33,0,0,1,88.51,9.05ZM73.63,10.71a16.17,16.17,0,0,1,6.93-4,33.24,33.24,0,0,1,3.49-1,.86.86,0,0,1,1,1.37,40.24,40.24,0,0,1-6.35,7.56c-.29.28-.69.51-1,.74a2.64,2.64,0,0,1-3.2.06A3.38,3.38,0,0,1,72.71,13,3.25,3.25,0,0,1,73.63,10.71ZM52.5,38.59a55.28,55.28,0,0,1,8.08-15.86,28,28,0,0,1,6.47-6.29h0c-.06-.46.28-.12.45-.23S67.73,16,68,16l-.34-.17a13,13,0,0,1,2.12-.4.77.77,0,0,1,.8,0h-.8v.11h.85c.29,0,.69-.11,1,.11A7.61,7.61,0,0,1,75,17.24c.23.23.52.46.75.68h0c.23.06.4.18.34.46a.52.52,0,0,0,.17.35h0c.46-.41.4.28.75.28-.06.63.4,1.15.23,1.78h0c0,.45.05.86.05,1.31a3.32,3.32,0,0,1-2.06,2.81,36.2,36.2,0,0,0-5,3.09h0c.06.63-.34.46-.68.46a1.76,1.76,0,0,1-1.61,1.09h0c-.4.57-.85,1.2-1.66,1.14,0,0,0,.06-.11.06h0c.06.4-.23.51-.52.69s-.68.74-1.2.63C63,33,61.78,34,60.52,34.93c-2.06,1.54-4.12,3.15-6.13,4.81-.51.4-1,.45-1.37.11A.85.85,0,0,1,52.5,38.59ZM74.6,64.07a3.61,3.61,0,0,1-1.89-.17c-.28-.17-.23.28-.51.4.11-.8-.35-1.09-.92-1.49-.34-.23-.8-.52-.69-1.09l-.11-.11h0c-.57.11-.34.4-.17.68s.34.4.28.69c.12,0,.29-.06.41.06a2.87,2.87,0,0,1,.45,2.86c-.17.29-.45.34-.68.46a2.8,2.8,0,0,1-3.15-1c-.23-.35-.75-.52-.63-1,0-.06-.06-.12-.12-.18h0a1.13,1.13,0,0,1-.8-1.26v-.05h-.46a2.2,2.2,0,0,0,.69,1.71c.12.12.29.29.17.46a.58.58,0,0,1-.51.35h-.63c-.23-.06,0-.12,0-.23A5.18,5.18,0,0,0,64,64.81a10.73,10.73,0,0,1-7-5,64.27,64.27,0,0,1-4.24-8.41c-.4-1-.8-1.89-1.14-2.87-.29-.68,0-1.08.8-1.08a6.62,6.62,0,0,1,4.18,1.83,15.34,15.34,0,0,1,3.15,4.06c.51.86,1,1.66,1.54,2.52h0c.23-.06.4-.11.52.23a7.49,7.49,0,0,0,.63,1.15c.34.74.86,1.43,1.2,2.17.17.4.52.86.74,1.26h.18v-.8c-.81-1.83-1.66-3.61-2.29-5.44A9.19,9.19,0,0,1,61.78,53c0-.17-.06-.4.11-.52s.35,0,.52.06a1.54,1.54,0,0,1,.63.57c.8,1,1.54,2.06,2.34,3.1.18,0,.41,0,.46.28a.29.29,0,0,0,.35.29c.17,0,0-.23.11-.4v-.23h0a5.8,5.8,0,0,1-.29-.86c-.17-.63.12-1,.75-1a2.29,2.29,0,0,1,1.89.69c2.12,2.23,4.23,4.46,6.52,6.52a3,3,0,0,1,.92,1.15h0A1.34,1.34,0,0,1,74.6,64.07Zm-14.2-23a.76.76,0,0,1,1-.28,43.16,43.16,0,0,1,5.1-2,2.89,2.89,0,0,1,1.2-.11,1.27,1.27,0,0,1,1.2,1,1.56,1.56,0,0,1-.34,1.49,2.56,2.56,0,0,1-.91.63h0a.54.54,0,0,1-.58.52,5.33,5.33,0,0,0-1.94.17,1.09,1.09,0,0,1-.46.06H61.09a.94.94,0,0,1-.91-.58A.88.88,0,0,1,60.4,41.05ZM80.16,60.29c-1,1.26-1.55,1.43-2.87.74A20.13,20.13,0,0,1,72,56.74a8.79,8.79,0,0,1-2-2.63h0a2,2,0,0,1-.46-2h0c.46-.63,1-.69,1.89-.06.4-.11.57.35.8.4.68.12,1,.69,1.37,1,.23.23.63.46.69.86a24.54,24.54,0,0,0,5,3.38,2,2,0,0,1,.46.23A1.4,1.4,0,0,1,80.16,60.29ZM69.74,48a4.31,4.31,0,0,1,1.89.23,39.47,39.47,0,0,1,5.26,1.15,7.25,7.25,0,0,1,4.53,4.06,4.24,4.24,0,0,1,.28,1.37V55c0,1.43-.91,2.06-2.29,1.49a13.54,13.54,0,0,1-3-1.77,61.77,61.77,0,0,1-6.92-5.9c-.17-.17-.46-.29-.35-.57S69.45,48,69.74,48ZM85.88,34.47A6,6,0,0,1,83.82,36a10.41,10.41,0,0,1-3.95,1.14,62.44,62.44,0,0,1-8.65.18,27.45,27.45,0,0,0-13.28,3.49,14.69,14.69,0,0,1-1.6.74c-.29.12-.52.12-.69-.11s-.06-.52.17-.75c1-.74,1.89-1.49,2.87-2.23.11-.11.28-.23.4-.34h0c0-.52.23-.92.86-1,.34,0,.51-.34.85-.51a1.2,1.2,0,0,1,.63-.12c.46-.28.92-.63,1.32-.91h0a.83.83,0,0,1,1.09-.69h.06c-.06-.57.4-.4.68-.46,0-.51.23-.68.69-.68h.57c0-.41.46-.52.63-.58.4-.17.86-.45,1.32-.28a1.23,1.23,0,0,0,.63-.23h0c.4-.63,1.14-.46,1.72-.69s1-.23,1.54-.4c.06,0,.12-.06.17-.06a11.83,11.83,0,0,0,2.47-.28A14,14,0,0,0,77,31a23.3,23.3,0,0,1,4.92-.17h1c1.15.11,2.29,0,3.44.17.4.05.57.28.63.68A3.57,3.57,0,0,1,85.88,34.47Zm2.52-7.84a11.62,11.62,0,0,1-3.61,1.08c-2.46.46-4.92.81-7.44,1.21H77c-1.61.28-3.15.57-4.75.91a21.83,21.83,0,0,0-4.13,1.26h0a7.4,7.4,0,0,0-.8.46c.12-.29.35-.4.57-.57a11.82,11.82,0,0,1,1.61-1.2c0-.12.11-.18.23-.18h0a32.49,32.49,0,0,1,3.66-2.46,24.45,24.45,0,0,1,9.1-3.72,7.49,7.49,0,0,1,6.07,1.37C89.43,25.48,89.37,26.05,88.4,26.63Zm2.35-4.7c-1-.17-2-.34-3-.46-1.94-.28-3.95-.4-5.95-.51h-.29a.69.69,0,0,1-.74-.57c-.06-.4.17-.63.51-.81,1.49-.63,3-1.14,4.53-1.66a20.87,20.87,0,0,1,5-1.08h1.37a2.23,2.23,0,0,1,1.72,3.49A4.15,4.15,0,0,1,90.75,21.93Z"/><path class="cls-3" d="M48,31.26a4,4,0,0,0-.51-1.77,1.29,1.29,0,0,1-.12-.69c0-.17,0-.34.17-.4s.23.17.29.29.06.11.11.17a.78.78,0,0,0-.05-.34c-.92-2.52-1.78-5-2.69-7.5l-.12.11h0c.23,1,.52,1.95.8,2.92.63,2.12,1.26,4.29,1.89,6.47a.16.16,0,0,0,.06.11A1.35,1.35,0,0,0,48,31.26Z"/><path class="cls-3" d="M47.52,28.4c-.23.06-.17.23-.17.4a1.4,1.4,0,0,0,.12.69A6.32,6.32,0,0,1,48,31.26a2.18,2.18,0,0,1,.17.4,3.84,3.84,0,0,0-.51-2.11,1.32,1.32,0,0,1-.06-1c.17.11.11.4.4.4-.06-.06-.06-.12-.11-.18S47.75,28.34,47.52,28.4Z"/><path class="cls-4" d="M50.73,27.37a2,2,0,0,1-.06.63,1.62,1.62,0,0,0,.23-.57c.57-1.95,1.15-3.84,1.6-5.78l-.11-.12h0c-.69,1.83-1.38,3.67-2,5.55C50.67,27,50.73,27.14,50.73,27.37Z"/><path class="cls-4" d="M50.39,27.08c.45.23.11.69.22,1a1.14,1.14,0,0,0,.06-.63c.06-.29,0-.46-.28-.35Z"/><path class="cls-5" d="M4.3,37.62a2.37,2.37,0,0,1,.11-3.38c.46-.4.86-.92,1.38-1.32a1.13,1.13,0,0,0,.34-.68,1,1,0,0,1-.23.17h0a.83.83,0,0,1-.4.46c-.46.51-1,.91-1.49,1.49a2.17,2.17,0,0,0-.28,2.74A6.13,6.13,0,0,0,6,39.22H6C5.56,38.65,4.87,38.19,4.3,37.62Z"/><path class="cls-5" d="M5.84,32.92c-.51.4-.91.92-1.37,1.32a2.37,2.37,0,0,0-.11,3.38c.57.57,1.25,1,1.77,1.66h0a2,2,0,0,0-1-1.2C4,37.5,4,36.53,3.9,35.56a.89.89,0,0,1,.17-.63,8.71,8.71,0,0,1,1.66-1.61,1.74,1.74,0,0,0,.69-1.14c-.06.06-.12.06-.12.11C6.13,32.47,6,32.75,5.84,32.92Z"/><path class="cls-6" d="M60.58,19.87c.17-.46.63-.74,1-1.09a22.12,22.12,0,0,0,1.83-2.29,50,50,0,0,0-3.55,4.18A1.73,1.73,0,0,0,60.58,19.87Z"/><path class="cls-6" d="M60.63,20.21a1.16,1.16,0,0,1,.35-.63,10,10,0,0,0,1.77-2c.17-.34.57-.63.63-1.09a22.12,22.12,0,0,1-1.83,2.29,5.8,5.8,0,0,0-1,1.09,2,2,0,0,1-.81.86h0C60.12,20.61,60.52,20.61,60.63,20.21Z"/><path class="cls-7" d="M54.56,58.4c0-.06-.17-.06-.17-.17a16.38,16.38,0,0,0,2.41,3.83c-.06-.57-.58-.91-.86-1.37C55.48,60,55,59.2,54.56,58.4Z"/><path class="cls-7" d="M56.11,60.75c-.46-.8-1-1.55-1.43-2.41-.06-.17-.23-.05-.34-.17,0,.06.17.12.17.17a14.45,14.45,0,0,0,1.37,2.29c.29.46.75.81.86,1.38h0C56.85,61.44,56.4,61.21,56.11,60.75Z"/><path class="cls-8" d="M37.9,20.73A25.75,25.75,0,0,0,35.67,18h0c.52.86,1.26,1.55,1.83,2.41C37.56,20.56,37.79,20.61,37.9,20.73Z"/><path class="cls-8" d="M35.79,18.67A4.14,4.14,0,0,1,37,20.1c.23.34.46.63.91.63-.11-.12-.34-.17-.45-.34-.52-.86-1.26-1.55-1.84-2.41C35.79,18.21,35.5,18.44,35.79,18.67Z"/><path class="cls-9" d="M22.79,6.42a1.1,1.1,0,0,0,.57.28A13.54,13.54,0,0,0,21.3,5.21,8.8,8.8,0,0,0,22.79,6.42Z"/><path class="cls-9" d="M23,6.76c.12.11.29,0,.4-.06a.69.69,0,0,1-.57-.28A14,14,0,0,1,21.3,5.27h0C21.64,6,22.5,6.24,23,6.76Z"/><path class="cls-10" d="M16.55,2.29a5.34,5.34,0,0,0,2,1.15A9.88,9.88,0,0,0,16.55,2.29Z"/><path class="cls-10" d="M18.61,3.44a6.3,6.3,0,0,1-2-1.15h0A2.28,2.28,0,0,0,18.61,3.44Z"/><path class="cls-11" d="M37.9,20.73h0a5.26,5.26,0,0,0,1.15,1.55A9,9,0,0,0,37.9,20.73Z"/><path class="cls-11" d="M39.05,22.28h0a3.87,3.87,0,0,1-1.15-1.55A1.93,1.93,0,0,0,39.05,22.28Z"/><path class="cls-4" d="M50.39,27.08a17.47,17.47,0,0,0-.69,1.84,6.28,6.28,0,0,0,.69-1.84Z"/><path class="cls-4" d="M50.39,27.08h0a5.8,5.8,0,0,1-.69,1.84A2.19,2.19,0,0,0,50.39,27.08Z"/><path class="cls-12" d="M61.38,66.36a5.3,5.3,0,0,0,1,.69A1.35,1.35,0,0,0,61.38,66.36Z"/><path class="cls-12" d="M61.38,66.36a1.13,1.13,0,0,1,1,.69h0C62.29,66.42,62,66.24,61.38,66.36Z"/><path class="cls-10" d="M16.55,2.29a6.8,6.8,0,0,0-1.37-.63h0A3.16,3.16,0,0,0,16.55,2.29Z"/><path class="cls-10" d="M16.55,2.29a2.41,2.41,0,0,1-1.37-.63h0A1.14,1.14,0,0,0,16.55,2.29Z"/><path class="cls-4" d="M50.44,28.57c.06-.05.06-.11.17-.11v-.17h0S50.5,28.4,50.44,28.57Z"/><path class="cls-4" d="M50.21,29.6h0c.12-.34.06-.74.29-1a.5.5,0,0,1,.17-.34h0C50.1,28.52,50.16,29.09,50.21,29.6Z"/><path class="cls-4" d="M50.44,28.57a2.29,2.29,0,0,0-.11.63c.06-.23.17-.51.28-.8Z"/><path class="cls-4" d="M50.44,28.57c-.23.29-.17.69-.28,1a1.14,1.14,0,0,0,.11-.4C50.33,29,50.39,28.74,50.44,28.57Z"/><path class="cls-7" d="M57,62.29a3.78,3.78,0,0,0,.92,1A4.12,4.12,0,0,0,57,62.29Z"/><path class="cls-7" d="M57,62.29a5.53,5.53,0,0,1,.92,1h0C57.83,62.75,57.43,62.52,57,62.29Z"/><path class="cls-11" d="M39.62,23a1.85,1.85,0,0,0-.51-.68A.78.78,0,0,0,39.62,23Z"/><path class="cls-11" d="M39.62,23a1.06,1.06,0,0,1-.51-.68h0C39,22.68,39.11,23,39.62,23Z"/><path class="cls-12" d="M61,65.9a1.67,1.67,0,0,1-.52-.17h0c.12.23.34.29.57.46C60.92,66.07,61.32,66,61,65.9Z"/><path class="cls-12" d="M60.52,65.67h0a1.7,1.7,0,0,0,.51.17c.29,0,0,.18.06.23h0C61.26,65.79,61.15,65.67,60.52,65.67Z"/><path class="cls-13" d="M52.45,21.65a1.77,1.77,0,0,0,.17-1.09c-.12.28-.17.63-.29,1h0C52.45,21.47,52.5,21.53,52.45,21.65Z"/><path class="cls-13" d="M52.33,21.53l.12.12C52.5,21.53,52.45,21.47,52.33,21.53Z"/><path class="cls-5" d="M6.13,39.22Z"/><path class="cls-5" d="M6.07,39.22a.75.75,0,0,0,.46.35A.44.44,0,0,0,6.07,39.22Z"/><path class="cls-5" d="M6.13,39.22h0c.23,0,.34.17.46.35h0C6.59,39.22,6.53,39,6.13,39.22Z"/><path class="cls-12" d="M60.52,65.67c-.17-.17-.29-.4-.57-.46a.77.77,0,0,0,.57.46Z"/><path class="cls-12" d="M60.52,65.67h0c-.06-.28-.17-.57-.57-.46C60.18,65.27,60.35,65.5,60.52,65.67Z"/><path class="cls-12" d="M60.52,65.67Z"/><path class="cls-12" d="M60.52,65.67Z"/><path class="cls-12" d="M60.52,65.67Z"/><path class="cls-12" d="M60.52,65.73Z"/><path class="cls-14" d="M64,15.75a.91.91,0,0,0-.4.4C63.84,16.09,63.9,15.86,64,15.75Z"/><path class="cls-14" d="M64,15.75c-.11.11-.17.34-.4.4h0C64,16.21,64.07,16,64,15.75Z"/><path class="cls-9" d="M23.88,7.05a.91.91,0,0,0-.46-.35C23.48,6.93,23.71,7,23.88,7.05Z"/><path class="cls-9" d="M23.88,7.05c-.17-.06-.4-.12-.46-.35h0C23.36,7.16,23.65,7.1,23.88,7.05Z"/><path class="cls-15" d="M45.18,21.07a1.69,1.69,0,0,0-.12-.45l-.11.11h0a.65.65,0,0,0,.11.46C45,21.07,45.06,21,45.18,21.07Z"/><path class="cls-15" d="M45.18,21.07c-.12,0-.18,0-.12.12h0C45.12,21.13,45.12,21.07,45.18,21.07Z"/><path class="cls-16" d="M68.82,60A17.35,17.35,0,0,1,66.7,57a7.3,7.3,0,0,1-.4-.86h0v.23c0,.11.06.34-.11.4a.37.37,0,0,1-.35-.29c0-.28-.23-.28-.46-.28a8.38,8.38,0,0,1,1,1.08l3.26,4.3a6.8,6.8,0,0,1,1,1.43h0c.06-.29-.11-.46-.28-.69s-.4-.57.17-.69A9.25,9.25,0,0,1,68.82,60Z"/><path class="cls-16" d="M70.59,63h0a7.36,7.36,0,0,0-1-1.43l-3.26-4.29a4.16,4.16,0,0,0-1-1.09c.92,1.26,1.84,2.52,2.75,3.72C68.93,60.92,69.74,62,70.59,63Z"/><path class="cls-16" d="M66.3,56.11a3,3,0,0,0,.4.86,28.28,28.28,0,0,0,2.12,2.92,6.55,6.55,0,0,0,1.66,1.66h0A32.46,32.46,0,0,1,66.3,56.11Z"/><path class="cls-17" d="M31.26,57.14a5.05,5.05,0,0,1,.52-.51h0c-.17-.06-.29.17-.46,0a1.3,1.3,0,0,1,.4-1,.87.87,0,0,0-.4-1.31.87.87,0,0,1,.29,1.2,19.28,19.28,0,0,1-3.21,4.75,6.57,6.57,0,0,1-1.32,1.26c.46,0,.63-.46,1-.63.11.17,0,.34.05.52h0a2,2,0,0,1,.46-.81C29.49,59.49,30.35,58.34,31.26,57.14Z"/><path class="cls-17" d="M31.26,57.14c-.91,1.2-1.83,2.41-2.69,3.61a3.89,3.89,0,0,0-.46.8c1.26-1.6,2.52-3.21,3.67-4.87A1.27,1.27,0,0,0,31.26,57.14Z"/><path class="cls-17" d="M28.4,60.35a20.47,20.47,0,0,0,3.21-4.75.86.86,0,0,0-.29-1.21h0a1,1,0,0,1,.11,1.26c-.22.4-.45.86-.68,1.26A33,33,0,0,1,27,61.66,7.47,7.47,0,0,0,28.4,60.35Z"/><path class="cls-18" d="M74.6,31.21h.17c.12-.06.29,0,.4-.06a2.69,2.69,0,0,0,.69-.06,52.67,52.67,0,0,1,6-.28A23,23,0,0,0,77,31c-.86.17-1.78.11-2.69.23a11.66,11.66,0,0,1-2.46.28.19.19,0,0,0-.17.06c-.52.17-1,.23-1.55.4s-1.32.06-1.72.69h0a8.48,8.48,0,0,1,2.58-.75A12.69,12.69,0,0,1,74.6,31.21Z"/><path class="cls-18" d="M74.6,31.32h0c0-.06.06-.06.12-.06h-.17a19.5,19.5,0,0,0-3.67.58,8.26,8.26,0,0,0-2.58.74c.18-.06.41-.06.63-.11A27.84,27.84,0,0,1,74.6,31.32Z"/><path class="cls-18" d="M75.12,31.09a1,1,0,0,1-.4.06h.51a.61.61,0,0,1,.46,0h0l1.6-.17h.35c1.26-.12,2.52-.17,3.78-.17a5.13,5.13,0,0,0,1.31-.06h-1c-2,.06-4,.06-6,.28A2,2,0,0,1,75.12,31.09Z"/><path class="cls-18" d="M75.23,31.21h-.51a.22.22,0,0,0-.12.05,2.4,2.4,0,0,0,.57-.05c0,.05,0,0,.06,0Z"/><path class="cls-18" d="M77.35,31h.34A.4.4,0,0,0,77.35,31Z"/><path class="cls-16" d="M70.59,63h0a2.33,2.33,0,0,1,.86,2.29,2,2,0,0,1-2.34.86,3.06,3.06,0,0,1-2.06-1.89c-.12.52.4.69.63,1a2.72,2.72,0,0,0,3.14,1,1.32,1.32,0,0,0,.69-.45,2.89,2.89,0,0,0-.46-2.87c-.17,0-.28.06-.46.06Z"/><path class="cls-16" d="M69.11,66.13a2,2,0,0,0,2.34-.86A2.09,2.09,0,0,0,70.59,63h0a5,5,0,0,1,.69,1.2A1.3,1.3,0,0,1,70.37,66a2.46,2.46,0,0,1-2.47-.63c-.34-.35-.63-.69-1-1A3.68,3.68,0,0,0,69.11,66.13Z"/><path class="cls-19" d="M61.15,42.49h3.61a1.33,1.33,0,0,0,.45-.06,5.27,5.27,0,0,1,2-.17c.29,0,.63-.23.57-.52-.34.46-.91.34-1.37.4a26.34,26.34,0,0,1-4.75.23h-.4a.77.77,0,0,1-.75-.74.68.68,0,0,1,.57-.81,1.3,1.3,0,0,1,.46,0,.76.76,0,0,0-1,.28.72.72,0,0,0-.11.92C60.4,42.31,60.69,42.49,61.15,42.49Z"/><path class="cls-19" d="M60.4,41.68a.81.81,0,0,0,.75.75h.4a32.45,32.45,0,0,0,4.75-.23,2.08,2.08,0,0,0,1.38-.4h0a20.31,20.31,0,0,1-5.21.57H61.15a.57.57,0,0,1-.63-.51c-.06-.35.11-.52.4-.69a2.21,2.21,0,0,0,.51-.29,1.33,1.33,0,0,0-.45.06A.66.66,0,0,0,60.4,41.68Z"/><path class="cls-20" d="M37.16,41.74c0,.34-.34.63-.86.63H33.84c-1,0-2-.23-2.92-.23a1.7,1.7,0,0,1-1.2-.46c.17.29.34.63.74.63.8.06,1.6.06,2.41.18a19.13,19.13,0,0,0,3.55,0,1,1,0,0,0,1-.58c.11-.23.17-.57,0-.68-.4-.23-.75-.75-1.32-.58h0c.17.06.35.06.52.12C36.93,41.05,37.22,41.28,37.16,41.74Z"/><path class="cls-20" d="M37.05,41.74c-.06.46-.46.52-.86.52H34.64a16.07,16.07,0,0,1-4.92-.63,1.86,1.86,0,0,0,1.2.45c1,0,1.95.23,2.92.23H36.3c.52,0,.86-.28.86-.63a1,1,0,0,0-.63-.91c-.11-.06-.34-.06-.52-.12a1.17,1.17,0,0,0,.46.23C36.87,41.11,37.1,41.34,37.05,41.74Z"/><path class="cls-16" d="M74.37,64c-1.31.17-2.11-.63-3-1.37a2.47,2.47,0,0,1-.75-.92,1.18,1.18,0,0,0,.69,1.09c.57.34,1,.69.92,1.49.28-.12.23-.52.51-.4a3.61,3.61,0,0,0,1.89.17A1.28,1.28,0,0,0,76,62.58h0A1.66,1.66,0,0,1,74.37,64Z"/><path class="cls-16" d="M71.34,62.64c.92.74,1.66,1.54,3,1.37A1.61,1.61,0,0,0,76,62.58a1.41,1.41,0,0,1-.86,1,2.67,2.67,0,0,1-2.46-.06,16.1,16.1,0,0,1-2.12-1.83A3.06,3.06,0,0,0,71.34,62.64Z"/><path class="cls-7" d="M48.38,52.39a.93.93,0,0,0,.06.4A.81.81,0,0,0,48.38,52.39Z"/><path class="cls-7" d="M49,53.71h0c-.17,0-.23,0-.34-.12a2.34,2.34,0,0,1,.23.75A2,2,0,0,1,49,53.71Z"/><path class="cls-7" d="M47.92,49.93c.18.8.35,1.6.46,2.46,0,.11.06.29.06.4V53a2.46,2.46,0,0,0,.17.63.43.43,0,0,0,.29.12h0a10,10,0,0,1,.28-1.15c-.28,0-.23.23-.23.4a1.47,1.47,0,0,1-.05.69.53.53,0,0,1-.35-.63,4.11,4.11,0,0,0,0-.86c-.28-.69-.23-1.43-.45-2.12-.12-.4,0-1-.52-1.26h0C47.92,49.07,47.87,49.53,47.92,49.93Z"/><path class="cls-7" d="M49.3,52.73a1.54,1.54,0,0,0-.06.52C49.24,53.08,49.3,52.9,49.3,52.73Z"/><path class="cls-7" d="M49,53.71c-.06.23-.06.45-.11.63a2.78,2.78,0,0,0-.23-.75c-.06-.06-.06-.11-.12-.17a.22.22,0,0,1,0-.11c0,.51.17,1.08.22,1.66,0,.11,0,.22.18.22s.17-.11.17-.22a12.83,12.83,0,0,1,.11-1.38S49.07,53.65,49,53.71Z"/><path class="cls-7" d="M48.44,52.79a.93.93,0,0,0-.06-.4c-.06-.34-.17-.74-.23-1.09a6.4,6.4,0,0,0-.51-2.12h0c.23,1.38.57,2.75.8,4.13h0Z"/><path class="cls-7" d="M49.13,53.53a.56.56,0,0,1,0-.28,1.54,1.54,0,0,1,.06-.52v-.17c-.11.4-.23.8-.29,1.15Q49.13,53.62,49.13,53.53Z"/><path class="cls-7" d="M48.67,53.59A5.6,5.6,0,0,1,48.5,53v.23h0v.06a.17.17,0,0,0,0,.11A.29.29,0,0,0,48.67,53.59Z"/><path class="cls-7" d="M47.64,49.13a7.07,7.07,0,0,1,.51,2.11c.06.35.17.75.23,1.09-.11-.86-.28-1.66-.46-2.46-.05-.4,0-.86-.34-1.14h0a.82.82,0,0,0,.06.4Z"/><path class="cls-21" d="M23.08,48.61c1.37-.11,2.74-.57,4.06-.74h.8a.58.58,0,0,1,.58.4.53.53,0,0,1-.35.63c.46.05.57-.35.57-.58a.64.64,0,0,0-.68-.57,12.94,12.94,0,0,0-3,.35c-.63.11-1.26.57-1.89.11a.43.43,0,0,0-.57.23c-.12.23.11.23.23.34h0A.23.23,0,0,1,23.08,48.61Z"/><path class="cls-21" d="M27.77,48c.75.17.86.34.34,1a.48.48,0,0,0,.35-.63.58.58,0,0,0-.57-.4,4.37,4.37,0,0,0-.81,0c-1.37.18-2.74.63-4.06.75a.32.32,0,0,0-.29.17c1.09-.17,2.18-.4,3.27-.63A4,4,0,0,1,27.77,48Z"/><path class="cls-22" d="M64.53,61.15a2.16,2.16,0,0,0,0-.57h-.18c-.22-.46-.51-.86-.74-1.26-.34-.8-.86-1.43-1.2-2.18A10.78,10.78,0,0,1,61.78,56c-.06-.4-.23-.29-.52-.23h0a5.83,5.83,0,0,1,1.21,1.89C63.15,58.74,63.78,60,64.53,61.15Z"/><path class="cls-22" d="M64.47,61.26h0s.06-.11.06-.17c-.75-1.14-1.38-2.35-2-3.55a9.38,9.38,0,0,0-1.2-1.89,10.51,10.51,0,0,0,.86,1.61C62.92,58.57,63.67,60,64.47,61.26Z"/><path class="cls-23" d="M16.09,14.15c.06,0,.06,0,.12.11v.06c.57.51,1.14,1.09,1.71,1.6a.75.75,0,0,0-.17-.57c-.91-.86-1.77-1.72-2.63-2.64a.86.86,0,0,0-.69-.28,17,17,0,0,0,1.66,1.72Z"/><path class="cls-23" d="M16.15,14.26c0-.06-.06-.06-.12-.11h0a.05.05,0,0,0,.06,0h0c.06.06.06.12.06.06Z"/><path class="cls-22" d="M65.38,62.75c.18.52.41,1,.63,1.55A.59.59,0,0,1,66,65c-.17.12-.35.18-.52,0,0,.06-.23.18,0,.23a2.21,2.21,0,0,0,.63,0,.56.56,0,0,0,.52-.34c.11-.23-.06-.34-.17-.46a2.33,2.33,0,0,1-.69-1.72,1.19,1.19,0,0,1-.35.06Z"/><path class="cls-22" d="M65.9,65A.6.6,0,0,0,66,64.3c-.23-.52-.4-1-.63-1.55h-.17c.17.57.51,1.09.68,1.72.12.4,0,.63-.46.51A.32.32,0,0,0,65.9,65Z"/><path class="cls-24" d="M71.57,52.16a16.23,16.23,0,0,1,2.69,2.18c-.06-.4-.4-.63-.69-.86-.4-.4-.74-.92-1.37-1-.23-.06-.4-.52-.8-.4h0C71.45,52.1,71.51,52.16,71.57,52.16Z"/><path class="cls-24" d="M71.4,52.1a.25.25,0,0,0,.11.17h0l2.75,2.07a14,14,0,0,0-2.69-2.18C71.51,52.16,71.45,52.1,71.4,52.1Z"/><path class="cls-25" d="M32.47,38a.17.17,0,0,0,.17.17,4.92,4.92,0,0,0,1.54.52,11.58,11.58,0,0,0,1.89.4h0A16.58,16.58,0,0,1,32.47,38Z"/><path class="cls-25" d="M36.07,39.11A15.63,15.63,0,0,0,32.41,38a31.73,31.73,0,0,0,3.66,1.09Z"/><path class="cls-18" d="M19,56.23h0a2.13,2.13,0,0,1-2.29.51c-.28-.11-.4-.34-.57-.63-.17.63.29.69.69.86A2,2,0,0,0,19,56.23Z"/><path class="cls-18" d="M16.66,56.74A2.25,2.25,0,0,0,19,56.23a5.17,5.17,0,0,0-.63.28,1.61,1.61,0,0,1-2.17-.34A.84.84,0,0,0,16.66,56.74Z"/><path class="cls-26" d="M61.32,36.42a1.28,1.28,0,0,0-.63.11c-.29.12-.46.52-.86.52-.63,0-.8.4-.86,1h0A7.91,7.91,0,0,1,61.32,36.42Z"/><path class="cls-26" d="M59,38l2.29-1.6A7,7,0,0,0,59,38Z"/><path class="cls-17" d="M34.18,53.42c-.34-.06-.51,0-.68.4a11.64,11.64,0,0,1-.92,1.43.72.72,0,0,0-.11.46h0A11.49,11.49,0,0,1,34.18,53.42Z"/><path class="cls-17" d="M32.47,55.71a23.92,23.92,0,0,0,1.71-2.29A11.49,11.49,0,0,0,32.47,55.71Z"/><path class="cls-27" d="M39,61.55a.55.55,0,0,0,.69-.4c.06-.23.23-.34.4-.52a1.43,1.43,0,0,0,.52-1.14h0A4.42,4.42,0,0,1,39,61.55Z"/><path class="cls-27" d="M40.65,59.49c-.51.69-1.09,1.37-1.6,2.06A5.23,5.23,0,0,0,40.65,59.49Z"/><path class="cls-28" d="M77.12,20.27c.06.17,0,.35.12.52.17-.63-.29-1.15-.23-1.78-.29,0-.29-.69-.75-.28h0C76.84,19,76.84,19.7,77.12,20.27Z"/><path class="cls-28" d="M77.18,20.73c-.06-.17,0-.34-.12-.52-.22-.57-.22-1.2-.85-1.54a12,12,0,0,1,1,2.06Z"/><path class="cls-29" d="M29.72,54.34a.92.92,0,0,0-.92.28c-.34.35-.74.69-1,1-.11.12.12.12.12.23h0C28.46,55.25,28.8,54.51,29.72,54.34Z"/><path class="cls-29" d="M29.72,54.34c-.92.17-1.32,1-1.83,1.54h0C28.57,55.48,28.92,54.62,29.72,54.34Z"/><path class="cls-30" d="M64.35,32.07c.58.11.86-.41,1.21-.63s.57-.29.51-.69h0A6.37,6.37,0,0,1,64.35,32.07Z"/><path class="cls-30" d="M66.07,30.81a13.38,13.38,0,0,0-1.72,1.26A7.61,7.61,0,0,0,66.07,30.81Z"/><path class="cls-30" d="M67.9,29.55h0a5.47,5.47,0,0,1-1.66,1.14C67.05,30.75,67.45,30.12,67.9,29.55Z"/><path class="cls-30" d="M67.9,29.55a8.42,8.42,0,0,0-1.66,1.14A6.31,6.31,0,0,0,67.9,29.55Z"/><path class="cls-31" d="M7.39,16.84a6,6,0,0,0-2.46-.18l.34.18h0A4.34,4.34,0,0,1,7.39,16.84Z"/><path class="cls-31" d="M5.21,16.84H7.33A4.35,4.35,0,0,0,5.21,16.84Z"/><path class="cls-32" d="M65.73,33.67a5,5,0,0,1,2-.92,2.09,2.09,0,0,0-1.32.29c-.17.11-.63.23-.63.63Z"/><path class="cls-32" d="M67.73,32.75a4.65,4.65,0,0,0-1.94.92C66.42,33.38,67.05,33,67.73,32.75Z"/><path class="cls-30" d="M69.45,28.4h0a3.79,3.79,0,0,1-1.6,1.09,1.66,1.66,0,0,0,1.6-1.09Z"/><path class="cls-30" d="M67.9,29.55a5.38,5.38,0,0,0,1.61-1.09A5.87,5.87,0,0,0,67.9,29.55Z"/><path class="cls-32" d="M64.47,34.36h0a2.2,2.2,0,0,1,1.26-.69h-.57c-.46,0-.69.17-.69.69Z"/><path class="cls-32" d="M64.47,34.36a5.93,5.93,0,0,0,1.26-.69A2.2,2.2,0,0,0,64.47,34.36Z"/><path class="cls-28" d="M67.9,15.92h0c.52-.46,1.21-.34,1.84-.46v-.11h0a9.22,9.22,0,0,0-2.12.4c.06.11.17.11.28.17Z"/><path class="cls-28" d="M69.74,15.52A3.07,3.07,0,0,0,67.9,16C68.48,15.81,69.11,15.69,69.74,15.52Z"/><path class="cls-33" d="M31.89,33.5c-.46-.23-.86-.75-1.54-.52h0a2.46,2.46,0,0,1,1.37.69C31.84,33.61,31.84,33.55,31.89,33.5Z"/><path class="cls-33" d="M30.35,33l1.37.69A2.28,2.28,0,0,0,30.35,33Z"/><path class="cls-18" d="M19.13,56.11a1.46,1.46,0,0,0,1.48-.92h0A3.08,3.08,0,0,1,19.13,56.11Z"/><path class="cls-18" d="M20.67,55.19c-.51.29-1,.63-1.49.92A3.72,3.72,0,0,0,20.67,55.19Z"/><path class="cls-27" d="M37.45,63a1.58,1.58,0,0,0,1.37-1.09h0A3.73,3.73,0,0,1,37.45,63Z"/><path class="cls-27" d="M38.82,61.84h0c-.46.34-.92.74-1.37,1.08A2.86,2.86,0,0,0,38.82,61.84Z"/><path class="cls-25" d="M36.07,39.11c.35.63,1,.63,1.61.68-.52-.22-1.15-.22-1.61-.68Z"/><path class="cls-25" d="M36.07,39.11h0c.46.46,1,.46,1.61.68h0A8.45,8.45,0,0,0,36.07,39.11Z"/><path class="cls-22" d="M64.58,60.63c.12.12.23.29.4.35a6.06,6.06,0,0,1-.51-1.26v.8l.11.11Z"/><path class="cls-22" d="M65.16,61.15h0a6.59,6.59,0,0,0-.69-1.38A5,5,0,0,0,65,61C65,61.09,65.1,61.09,65.16,61.15Z"/><path class="cls-22" d="M64.53,60.63s-.06,0-.06-.05l.06.05Z"/><path class="cls-22" d="M66.87,64.07h0a3,3,0,0,1-.8-1.26A1.2,1.2,0,0,0,66.87,64.07Z"/><path class="cls-22" d="M66.87,64.07c-.28-.4-.51-.86-.8-1.26A3.21,3.21,0,0,0,66.87,64.07Z"/><path class="cls-22" d="M65.38,61.78c0,.34.23.63.23,1h.46A2,2,0,0,1,65.38,61.78Z"/><path class="cls-22" d="M65.38,61.55h0v.17a2.4,2.4,0,0,0,.69,1h0C65.84,62.35,65.61,62,65.38,61.55Z"/><path class="cls-32" d="M63.72,34.81a.82.82,0,0,0-1.08.69h0A2.08,2.08,0,0,1,63.72,34.81Z"/><path class="cls-32" d="M62.64,35.5c.34-.23.74-.46,1.08-.69A2.08,2.08,0,0,0,62.64,35.5Z"/><path class="cls-34" d="M31.78,17.29c-.06-.63-.29-.8-.92-.68h0A1.25,1.25,0,0,1,31.78,17.29Z"/><path class="cls-34" d="M30.86,16.61c.29.23.63.46.92.68A1.25,1.25,0,0,0,30.86,16.61Z"/><path class="cls-17" d="M32.47,55.71c-.63,0-.63.46-.69.92h0A1.8,1.8,0,0,1,32.47,55.71Z"/><path class="cls-17" d="M31.78,56.63h0a3,3,0,0,0,.69-.92A1.8,1.8,0,0,0,31.78,56.63Z"/><path class="cls-34" d="M79.7,15.92c-.57,0-.8.29-.69.86h0C79.07,16.38,79.41,16.15,79.7,15.92Z"/><path class="cls-34" d="M79,16.78l.69-.86C79.41,16.15,79.07,16.38,79,16.78Z"/><path class="cls-34" d="M32.47,17.81c.05-.52-.23-.63-.69-.52A1.38,1.38,0,0,1,32.47,17.81Z"/><path class="cls-34" d="M32.47,17.81a.94.94,0,0,0-.69-.52A2.6,2.6,0,0,0,32.47,17.81Z"/><path class="cls-34" d="M80.84,14.83a.6.6,0,0,0-.68.69A1.38,1.38,0,0,1,80.84,14.83Z"/><path class="cls-34" d="M80.84,14.83a2,2,0,0,0-.68.69A8.78,8.78,0,0,0,80.84,14.83Z"/><path class="cls-30" d="M69.45,28.4h0c.34,0,.8.12.69-.46h0C70,28.23,69.74,28.29,69.45,28.4Z"/><path class="cls-30" d="M69.45,28.4c.23-.11.57-.17.69-.46a2.51,2.51,0,0,0-.69.46Z"/><path class="cls-29" d="M27.66,56.11c-.18.06-.12-.29-.29-.11a.5.5,0,0,0-.11.63h0A.88.88,0,0,1,27.66,56.11Z"/><path class="cls-29" d="M27.66,56.11a.76.76,0,0,0-.4.46C27.43,56.51,27.54,56.34,27.66,56.11Z"/><path class="cls-32" d="M64.47,34.36h0c-.29,0-.75-.18-.69.45h0A.87.87,0,0,1,64.47,34.36Z"/><path class="cls-32" d="M64.47,34.36h0c-.29,0-.57.11-.69.45h0A2,2,0,0,0,64.47,34.36Z"/><path class="cls-34" d="M81.3,14.32c-.51-.23-.4.17-.46.46A1.13,1.13,0,0,1,81.3,14.32Z"/><path class="cls-34" d="M81.3,14.32a.89.89,0,0,0-.46.46h0A1.19,1.19,0,0,0,81.3,14.32Z"/><path class="cls-33" d="M32.47,34c.11-.63-.29-.17-.46-.23h0C32.18,33.9,32.35,33.78,32.47,34Z"/><path class="cls-33" d="M32,33.78a1.05,1.05,0,0,0,.46.23C32.35,33.78,32.18,33.9,32,33.78Z"/><path class="cls-34" d="M30.86,16.61a.6.6,0,0,0-.74-.46h0A1.35,1.35,0,0,1,30.86,16.61Z"/><path class="cls-34" d="M30.18,16.15c.22.11.45.29.74.46A2,2,0,0,0,30.18,16.15Z"/><path class="cls-34" d="M80.16,15.46c-.35,0-.52.12-.46.46A1.19,1.19,0,0,1,80.16,15.46Z"/><path class="cls-34" d="M80.16,15.46a1.13,1.13,0,0,0-.46.46h0A1.19,1.19,0,0,0,80.16,15.46Z"/><path class="cls-35" d="M38.82,25.25a1.44,1.44,0,0,1,.29.46C39.45,25.31,39.05,25.37,38.82,25.25Z"/><path class="cls-35" d="M39.11,25.71a1.44,1.44,0,0,0-.29-.46h0A1.21,1.21,0,0,0,39.11,25.71Z"/><path class="cls-28" d="M71.51,15.63c-.29-.22-.63-.05-1-.11h0C70.88,15.63,71.22,15.41,71.51,15.63Z"/><path class="cls-28" d="M70.59,15.52c.29.17.63.06,1,.11C71.22,15.41,70.88,15.63,70.59,15.52Z"/><path class="cls-28" d="M70.48,15.35a.79.79,0,0,0-.8,0h.8Z"/><path class="cls-35" d="M39.74,26.63v-.46c-.06,0-.12.06-.23.11h0C39.62,26.34,39.68,26.51,39.74,26.63Z"/><path class="cls-35" d="M39.45,26.28c.06.12.17.23.23.35A.37.37,0,0,0,39.45,26.28Z"/><path class="cls-28" d="M67.45,16.15h0c-.12.11-.52-.23-.46.23h0C67.1,16.21,67.27,16.26,67.45,16.15Z"/><path class="cls-28" d="M67.45,16.15c-.12.11-.35.06-.46.23a.54.54,0,0,0,.46-.23Z"/><path class="cls-28" d="M76,18.38c.06-.28-.11-.4-.34-.46h0A.59.59,0,0,1,76,18.38Z"/><path class="cls-28" d="M76,18.38a.89.89,0,0,0-.34-.46C75.8,18.1,75.92,18.21,76,18.38Z"/><path class="cls-31" d="M4.93,17.07c0-.06.05-.06,0,0h0c.05-.18.17-.12.23-.18h0c-.18,0-.4-.05-.46.18C4.81,17,4.87,17,4.93,17.07Z"/><path class="cls-31" d="M4.93,17h0a.47.47,0,0,0,.23-.12S5,16.89,4.93,17Z"/><path class="cls-31" d="M4.93,17.07c-.06-.06-.12,0-.23,0h.23Z"/><path class="cls-28" d="M67.9,15.92h0a.41.41,0,0,0-.45.23h0A1.07,1.07,0,0,1,67.9,15.92Z"/><path class="cls-28" d="M67.45,16.15h0a.51.51,0,0,0,.45-.23h0A1.07,1.07,0,0,0,67.45,16.15Z"/><path class="cls-2" d="M65.33,61.72a.06.06,0,0,0-.06-.06v0c-.06,0-.06-.12-.06-.17s0-.12,0-.18v0a.4.4,0,0,1-.35-.23.31.31,0,0,1-.11.28h0a4.83,4.83,0,0,1,.51,1.15c0,.06.06.11.12.23v0h.23l0,.06C65.38,62.41,65.1,62.12,65.33,61.72Z"/><path class="cls-2" d="M64.47,61.26h0a.17.17,0,0,0,.11,0h0A.17.17,0,0,1,64.47,61.26Z"/><path class="cls-2" d="M65.16,62.64h0v0h0a.18.18,0,0,1,.11,0v-.06c-.06-.06-.06-.11-.11-.23Z"/><path class="cls-2" d="M65.27,61.55v.06a.05.05,0,0,0,.06,0,.19.19,0,0,1,0-.11Z"/><path class="cls-2" d="M65.16,61.15H65v.06s.06.11.06.17S65.21,61.21,65.16,61.15Z"/><path class="cls-2" d="M64.53,61.15h0s0,.06,0,.06.12-.18.12-.29l-.17-.34Z"/><path class="cls-2" d="M64.53,61.15a.2.2,0,0,1-.06.17h0c.06,0,.06-.06.11-.06a.17.17,0,0,1,0-.11Z"/><path class="cls-2" d="M65.33,62.64v0h.28l0,0Z"/><path class="cls-2" d="M65.21,62.75h.17v-.06c-.11,0-.17,0-.17.06Z"/><path class="cls-2" d="M65,61c-.11-.11-.28-.22-.4-.34.06.06.06.17.12.23a.4.4,0,0,0,.34.23L65,61Z"/><path class="cls-2" d="M65.16,61.15c-.06,0-.12-.06-.18-.12v.12Z"/><polygon class="cls-2" points="65.21 61.15 65.16 61.15 65.16 61.15 65.21 61.15"/><path class="cls-2" d="M64.58,60.63a.18.18,0,0,0-.11-.05,1.78,1.78,0,0,1,.17.34C64.7,60.81,64.64,60.75,64.58,60.63Z"/><path class="cls-2" d="M65.38,61.72h0c-.22.4,0,.69.23,1,0-.28-.28-.57-.23-1Z"/><path class="cls-2" d="M65.33,61.72h0s0,.06,0,0,0-.06,0-.11h0A.19.19,0,0,1,65.33,61.72Z"/><path class="cls-22" d="M65.16,62.64a4.07,4.07,0,0,0-.69-1.38A5,5,0,0,0,65.16,62.64Z"/><path class="cls-22" d="M65.16,62.35a5.24,5.24,0,0,0-.52-1.14h0A6.6,6.6,0,0,0,65.16,62.35Z"/><path class="cls-22" d="M65.16,62.64h0v-.29c-.18-.34-.35-.74-.58-1.09h0a.17.17,0,0,0-.11.06A3.78,3.78,0,0,1,65.16,62.64Z"/><path class="cls-22" d="M65.38,61.55h0a.74.74,0,0,0-.22-.46h0C65.27,61.32,65.27,61.49,65.38,61.55Z"/><polygon class="cls-22" points="65.16 61.15 65.16 61.15 65.21 61.15 65.21 61.15 65.16 61.15"/><path class="cls-22" d="M65.38,61.61Z"/><path class="cls-22" d="M65.27,61.55c0-.06-.06-.11-.06-.17A.2.2,0,0,0,65.27,61.55Z"/><path class="cls-22" d="M65.38,61.55c-.17-.11-.11-.29-.22-.46h0v.23c0,.06,0,.12,0,.17a.21.21,0,0,0,.17.06Z"/><polygon class="cls-22" points="65.21 61.15 65.16 61.15 65.16 61.15 65.21 61.15"/><polygon class="cls-22" points="65.39 61.55 65.39 61.61 65.39 61.61 65.39 61.61 65.39 61.55"/><path class="cls-22" d="M65.38,61.61Z"/><path class="cls-2" d="M120.19,2.39q4.95.45,12.61,1.79c5.11-.9,9.31-1.79,12.61-1.79V4.48a6.43,6.43,0,0,0-3.6,1.19,8,8,0,0,0-2.1,2.39c-.3,1.19-.6,2.38-.9,3.88,0,1.49-.3,3.58-.3,6.26V37.6a64.78,64.78,0,0,1-.3,8.35,14.25,14.25,0,0,1-2.1,6,19.58,19.58,0,0,1-4.81,5.37,22.57,22.57,0,0,1-10.51,4.78l-.9-1.79a8.21,8.21,0,0,0,3.9-3.88,20.88,20.88,0,0,0,1.8-7.46c.3-3,.3-6.87.3-11.64V17.9a52.81,52.81,0,0,0-.3-7.75A8.88,8.88,0,0,0,123.79,6a7.78,7.78,0,0,0-4.2-1.79V2.39Z"/><path class="cls-2" d="M186.26,17l2.1,1.19a54.31,54.31,0,0,0-.6,9.85v7.46a28.83,28.83,0,0,0,.3,5.37,5.58,5.58,0,0,0,1.5,3.28,3.67,3.67,0,0,0,2.7.9h1.51l.3,2.39a43.16,43.16,0,0,1-9.91,1.19H183a31.64,31.64,0,0,0-3.3,2.09l-2.1-1.2a21.26,21.26,0,0,1-.6-5.07,14,14,0,0,1-2.7,3.58A11.18,11.18,0,0,1,170,50.13a16.26,16.26,0,0,1-5.71.9,12.53,12.53,0,0,1-5.4-.9,5.45,5.45,0,0,1-3.3-3,11.29,11.29,0,0,1-1.81-4.78,45,45,0,0,1-.6-6.86V31.33a21.18,21.18,0,0,0-.3-5.07,5.68,5.68,0,0,0-.9-2.39,3.71,3.71,0,0,0-2.7-.89V20.89a55.35,55.35,0,0,1,9.91-.9c1.2-.89,2.7-1.79,4.2-2.68l2.11,1.19a106.57,106.57,0,0,0-.6,12.53v3.58a40,40,0,0,0,.3,6.57,8.06,8.06,0,0,0,1.5,3.58A4.09,4.09,0,0,0,170,46a5.87,5.87,0,0,0,4.81-2.38,12.69,12.69,0,0,0,1.8-7.17V31.63a22.71,22.71,0,0,0-.3-5.37,10.22,10.22,0,0,0-.9-2.39,3.73,3.73,0,0,0-2.71-.89V20.59a41.18,41.18,0,0,1,8.71-.6h1.2C183.25,18.8,184.76,17.9,186.26,17Z"/><path class="cls-2" d="M210.28,17l2.11,1.19a86.43,86.43,0,0,0-.61,9.85V49.53a32.46,32.46,0,0,1-1.2,10.15,13.57,13.57,0,0,1-4.5,6.27c-2.1,1.79-5.41,3-9.61,4.17l-.9-1.79a8.2,8.2,0,0,0,3.3-3.88,14.49,14.49,0,0,0,1.2-5.67,69.86,69.86,0,0,0,.3-8.65V30.44a22.73,22.73,0,0,0-.3-5.08,2.66,2.66,0,0,0-1.2-2.38,5.89,5.89,0,0,0-3-.9h-.3V20a48.34,48.34,0,0,1,7.81-.89h2.7A9.35,9.35,0,0,0,210.28,17Zm-4.2-12.83a2.94,2.94,0,0,1,2.7,1.19,3.64,3.64,0,0,1,.9,2.69,4.78,4.78,0,0,1-.9,2.68,3.8,3.8,0,0,1-2.7,1.2,3.66,3.66,0,0,1-2.7-1.2,3.2,3.2,0,0,1-1.21-2.68,2.89,2.89,0,0,1,1.21-2.69A3.69,3.69,0,0,1,206.08,4.18Z"/><path class="cls-2" d="M256.83,17l2.1,1.19a54.31,54.31,0,0,0-.6,9.85v7.46a28.83,28.83,0,0,0,.3,5.37,5.53,5.53,0,0,0,1.51,3.28,3.67,3.67,0,0,0,2.7.9h1.5l.3,2.39a43.08,43.08,0,0,1-9.91,1.19h-1.2a31.64,31.64,0,0,0-3.3,2.09l-2.11-1.2a21.26,21.26,0,0,1-.6-5.07,14,14,0,0,1-2.7,3.58,11,11,0,0,1-4.21,2.09,16.24,16.24,0,0,1-5.7.9,12.59,12.59,0,0,1-5.41-.9,5.45,5.45,0,0,1-3.3-3,11.42,11.42,0,0,1-1.8-4.78,45,45,0,0,1-.6-6.86V31.33a21.18,21.18,0,0,0-.3-5.07,5.68,5.68,0,0,0-.9-2.39,3.73,3.73,0,0,0-2.71-.89V20.89a55.43,55.43,0,0,1,9.91-.9c1.2-.89,2.71-1.79,4.21-2.68l2.1,1.19a106.57,106.57,0,0,0-.6,12.53v3.58a40,40,0,0,0,.3,6.57,8.06,8.06,0,0,0,1.5,3.58,4.09,4.09,0,0,0,3.3,1.19,5.84,5.84,0,0,0,4.81-2.38,12.69,12.69,0,0,0,1.8-7.17V31.63a22.71,22.71,0,0,0-.3-5.37,10.22,10.22,0,0,0-.9-2.39,3.71,3.71,0,0,0-2.7-.89V20.59A41.08,41.08,0,0,1,252,20h1.2A12,12,0,0,1,256.83,17Z"/><path class="cls-2" d="M279.66,0l2.1,1.19c-.3,3.29-.6,7.76-.6,13.43v6.57a11.85,11.85,0,0,1,4.5-3,19.75,19.75,0,0,1,6-1.19,15,15,0,0,1,8.11,2.09,12.36,12.36,0,0,1,5.4,5.67,17.82,17.82,0,0,1,2.11,8.05,18.43,18.43,0,0,1-2.41,9.25,16.39,16.39,0,0,1-7.21,6.27,22.38,22.38,0,0,1-10.21,2.39q-8.55,0-12.61-3.58a41.43,41.43,0,0,1-4.2,3.28l-1.81-.9a49.69,49.69,0,0,0,.91-11V15.22a32.64,32.64,0,0,0-.3-6.27,5.28,5.28,0,0,0-1.21-3,4,4,0,0,0-3-.9h-.3V2.69a60.62,60.62,0,0,1,6.91-.3,21.25,21.25,0,0,1,4.2.3A18.48,18.48,0,0,1,279.66,0Zm1.5,37.3a30.6,30.6,0,0,0,.6,6,5,5,0,0,0,1.8,3.28,6.43,6.43,0,0,0,3.6,1.19,6.18,6.18,0,0,0,5.71-3,16.68,16.68,0,0,0,2.1-8.65c0-4.48-.6-8.06-2.1-10.45s-3.3-3.58-5.71-3.58a6.87,6.87,0,0,0-5.7,3l-.3,12.23Z"/><path class="cls-2" d="M343.92,31V37.6a15.81,15.81,0,0,0,.3,4.18,3.36,3.36,0,0,0,.9,2.38,1.83,1.83,0,0,0,1.81.9,7.63,7.63,0,0,0,2.1-.6l.9,1.79a14.51,14.51,0,0,1-4.2,3.28,8.52,8.52,0,0,1-4.51,1.2c-3.9,0-6.31-1.79-6.91-5.37a13.1,13.1,0,0,1-4.8,4.17A18.18,18.18,0,0,1,322.3,51c-3,0-5.71-.6-7.21-2.09a6.92,6.92,0,0,1-2.7-5.67,8.22,8.22,0,0,1,.9-3.88A5.87,5.87,0,0,1,316,36.7a16.13,16.13,0,0,1,4.51-1.79c1.8-.3,3.9-.89,6.31-1.49a24.67,24.67,0,0,0,4.2-.89,2.75,2.75,0,0,0,1.8-1.2,5.93,5.93,0,0,0,.6-2.68,19.68,19.68,0,0,0-.3-4.48c-.3-1.19-.6-2.09-1.2-2.39a3.71,3.71,0,0,0-2.7-.89,4.58,4.58,0,0,0-3.31,1.19,4.07,4.07,0,0,0-1.2,3.28,7.88,7.88,0,0,0,.9,3.58,10.27,10.27,0,0,1-5.4,1.2,4.55,4.55,0,0,1-3.31-1.2,3.44,3.44,0,0,1-1.2-3,5.87,5.87,0,0,1,1.81-4.18,16.34,16.34,0,0,1,5.1-3,30.5,30.5,0,0,1,7.81-1.19,19.55,19.55,0,0,1,8.11,1.49,8.22,8.22,0,0,1,4.5,4.47A35.83,35.83,0,0,1,343.92,31Zm-11.41,3a27.32,27.32,0,0,0-5.4,1.79,6.07,6.07,0,0,0-2.71,1.79,5.33,5.33,0,0,0-.9,3.28,7,7,0,0,0,.6,2.39,3.65,3.65,0,0,0,1.5,1.49,5.66,5.66,0,0,0,2.11.6c3.3,0,4.8-2.09,4.8-6.27V34Z"/><path class="cls-2" d="M385.07,31.33h-18a4.45,4.45,0,0,0-2.1.3c-.61,0-.91.3-.91.6a2.22,2.22,0,0,0-.3,1.49,13.54,13.54,0,0,0,1.51,6,12,12,0,0,0,4.2,4.47A11.09,11.09,0,0,0,375.76,46a16.91,16.91,0,0,0,5.1-.89,11.32,11.32,0,0,0,4.51-2.69l1.2,2.09a16.87,16.87,0,0,1-6.91,4.78A26.68,26.68,0,0,1,369.75,51a18.24,18.24,0,0,1-7.21-1.2,16.29,16.29,0,0,1-5.4-3.28,19.6,19.6,0,0,1-3.61-5.07,16,16,0,0,1-1.2-6.57A18.07,18.07,0,0,1,354.74,26a16.67,16.67,0,0,1,6.6-6.27,19.63,19.63,0,0,1,9.31-2.38,16.65,16.65,0,0,1,7.81,1.79,13.64,13.64,0,0,1,5.41,4.47,11,11,0,0,1,1.8,6.27C385.37,29.84,385.37,30.44,385.07,31.33Zm-12.32-3a2.28,2.28,0,0,0,1.51-.3c.3-.3.3-.6.3-1.19a6.79,6.79,0,0,0-1.81-4.78,5.21,5.21,0,0,0-8.1-.3,8.47,8.47,0,0,0-1.51,5.08v1.19l9.61.3Z"/></g></g></svg>